<mxfile host="app.diagrams.net" modified="2021-09-18T03:59:20.458Z" agent="5.0 (Windows NT 10.0; Win64; x64) AppleWebKit/537.36 (KHTML, like Gecko) Chrome/93.0.4577.82 Safari/537.36" etag="wqFEoYeLiMoPomYrKRa6" version="15.2.9" type="github">
  <diagram name="Page-1" id="90a13364-a465-7bf4-72fc-28e22215d7a0">
    <mxGraphModel dx="1221" dy="681" grid="1" gridSize="10" guides="1" tooltips="1" connect="1" arrows="1" fold="1" page="1" pageScale="1.5" pageWidth="1169" pageHeight="826" background="none" math="0" shadow="0">
      <root>
        <mxCell id="0" style=";html=1;" />
        <mxCell id="1" style=";html=1;" parent="0" />
        <mxCell id="_ACVbjb4rTPhQJA2rkIT-1" value="&lt;font face=&quot;roboto&quot; data-font-src=&quot;https://fonts.googleapis.com/css?family=roboto&quot;&gt;CRS&lt;/font&gt;" style="ellipse;whiteSpace=wrap;html=1;aspect=fixed;" vertex="1" parent="1">
          <mxGeometry x="480" y="350" width="100" height="100" as="geometry" />
        </mxCell>
        <mxCell id="_ACVbjb4rTPhQJA2rkIT-3" value="" style="endArrow=none;html=1;" edge="1" parent="1">
          <mxGeometry width="50" height="50" relative="1" as="geometry">
            <mxPoint x="580" y="400" as="sourcePoint" />
            <mxPoint x="640" y="400" as="targetPoint" />
          </mxGeometry>
        </mxCell>
        <mxCell id="_ACVbjb4rTPhQJA2rkIT-4" value="" style="endArrow=none;html=1;" edge="1" parent="1">
          <mxGeometry width="50" height="50" relative="1" as="geometry">
            <mxPoint x="640" y="600" as="sourcePoint" />
            <mxPoint x="640" y="200" as="targetPoint" />
          </mxGeometry>
        </mxCell>
        <mxCell id="_ACVbjb4rTPhQJA2rkIT-5" value="" style="endArrow=none;html=1;" edge="1" parent="1">
          <mxGeometry width="50" height="50" relative="1" as="geometry">
            <mxPoint x="640" y="200" as="sourcePoint" />
            <mxPoint x="720" y="200" as="targetPoint" />
          </mxGeometry>
        </mxCell>
        <mxCell id="_ACVbjb4rTPhQJA2rkIT-6" value="" style="endArrow=none;html=1;" edge="1" parent="1">
          <mxGeometry width="50" height="50" relative="1" as="geometry">
            <mxPoint x="640" y="280" as="sourcePoint" />
            <mxPoint x="720" y="280" as="targetPoint" />
          </mxGeometry>
        </mxCell>
        <mxCell id="_ACVbjb4rTPhQJA2rkIT-7" value="" style="endArrow=none;html=1;" edge="1" parent="1">
          <mxGeometry width="50" height="50" relative="1" as="geometry">
            <mxPoint x="640" y="520" as="sourcePoint" />
            <mxPoint x="720" y="520" as="targetPoint" />
          </mxGeometry>
        </mxCell>
        <mxCell id="_ACVbjb4rTPhQJA2rkIT-8" value="" style="endArrow=none;html=1;" edge="1" parent="1">
          <mxGeometry width="50" height="50" relative="1" as="geometry">
            <mxPoint x="640" y="440" as="sourcePoint" />
            <mxPoint x="720" y="440" as="targetPoint" />
          </mxGeometry>
        </mxCell>
        <mxCell id="_ACVbjb4rTPhQJA2rkIT-9" value="" style="endArrow=none;html=1;" edge="1" parent="1">
          <mxGeometry width="50" height="50" relative="1" as="geometry">
            <mxPoint x="640" y="360" as="sourcePoint" />
            <mxPoint x="720" y="360" as="targetPoint" />
          </mxGeometry>
        </mxCell>
        <mxCell id="_ACVbjb4rTPhQJA2rkIT-10" value="" style="endArrow=none;html=1;" edge="1" parent="1">
          <mxGeometry width="50" height="50" relative="1" as="geometry">
            <mxPoint x="640" y="600" as="sourcePoint" />
            <mxPoint x="720" y="600" as="targetPoint" />
          </mxGeometry>
        </mxCell>
        <mxCell id="_ACVbjb4rTPhQJA2rkIT-11" value="" style="rounded=0;whiteSpace=wrap;html=1;" vertex="1" parent="1">
          <mxGeometry x="720" y="180" width="120" height="40" as="geometry" />
        </mxCell>
        <mxCell id="_ACVbjb4rTPhQJA2rkIT-13" value="" style="rounded=1;whiteSpace=wrap;html=1;" vertex="1" parent="1">
          <mxGeometry x="720" y="260" width="120" height="40" as="geometry" />
        </mxCell>
        <mxCell id="_ACVbjb4rTPhQJA2rkIT-14" value="" style="rounded=1;whiteSpace=wrap;html=1;" vertex="1" parent="1">
          <mxGeometry x="720" y="340" width="120" height="40" as="geometry" />
        </mxCell>
        <mxCell id="_ACVbjb4rTPhQJA2rkIT-15" value="" style="rounded=1;whiteSpace=wrap;html=1;" vertex="1" parent="1">
          <mxGeometry x="720" y="420" width="120" height="40" as="geometry" />
        </mxCell>
        <mxCell id="_ACVbjb4rTPhQJA2rkIT-16" value="" style="rounded=1;whiteSpace=wrap;html=1;" vertex="1" parent="1">
          <mxGeometry x="720" y="500" width="120" height="40" as="geometry" />
        </mxCell>
        <mxCell id="_ACVbjb4rTPhQJA2rkIT-17" value="" style="rounded=1;whiteSpace=wrap;html=1;" vertex="1" parent="1">
          <mxGeometry x="720" y="580" width="120" height="40" as="geometry" />
        </mxCell>
        <mxCell id="_ACVbjb4rTPhQJA2rkIT-18" value="" style="endArrow=none;html=1;" edge="1" parent="1">
          <mxGeometry width="50" height="50" relative="1" as="geometry">
            <mxPoint x="920" y="600" as="sourcePoint" />
            <mxPoint x="920" y="200" as="targetPoint" />
          </mxGeometry>
        </mxCell>
        <mxCell id="_ACVbjb4rTPhQJA2rkIT-19" value="" style="endArrow=none;html=1;" edge="1" parent="1">
          <mxGeometry width="50" height="50" relative="1" as="geometry">
            <mxPoint x="840" y="199.41" as="sourcePoint" />
            <mxPoint x="920" y="199.41" as="targetPoint" />
          </mxGeometry>
        </mxCell>
        <mxCell id="_ACVbjb4rTPhQJA2rkIT-20" value="" style="endArrow=none;html=1;" edge="1" parent="1">
          <mxGeometry width="50" height="50" relative="1" as="geometry">
            <mxPoint x="840" y="599" as="sourcePoint" />
            <mxPoint x="920" y="599" as="targetPoint" />
          </mxGeometry>
        </mxCell>
        <mxCell id="_ACVbjb4rTPhQJA2rkIT-23" value="" style="endArrow=none;html=1;" edge="1" parent="1">
          <mxGeometry width="50" height="50" relative="1" as="geometry">
            <mxPoint x="838" y="279.41" as="sourcePoint" />
            <mxPoint x="915" y="279.8199999999999" as="targetPoint" />
          </mxGeometry>
        </mxCell>
        <mxCell id="_ACVbjb4rTPhQJA2rkIT-24" value="" style="endArrow=none;html=1;" edge="1" parent="1">
          <mxGeometry width="50" height="50" relative="1" as="geometry">
            <mxPoint x="840" y="359.41" as="sourcePoint" />
            <mxPoint x="917" y="359.8199999999999" as="targetPoint" />
          </mxGeometry>
        </mxCell>
        <mxCell id="_ACVbjb4rTPhQJA2rkIT-25" value="" style="endArrow=none;html=1;" edge="1" parent="1">
          <mxGeometry width="50" height="50" relative="1" as="geometry">
            <mxPoint x="840" y="439.40999999999997" as="sourcePoint" />
            <mxPoint x="917" y="439.8199999999998" as="targetPoint" />
          </mxGeometry>
        </mxCell>
        <mxCell id="_ACVbjb4rTPhQJA2rkIT-26" value="" style="endArrow=none;html=1;" edge="1" parent="1">
          <mxGeometry width="50" height="50" relative="1" as="geometry">
            <mxPoint x="840" y="519.41" as="sourcePoint" />
            <mxPoint x="917" y="519.8199999999998" as="targetPoint" />
          </mxGeometry>
        </mxCell>
      </root>
    </mxGraphModel>
  </diagram>
</mxfile>
